<mxfile host="app.diagrams.net" modified="2023-07-29T03:59:24.541Z" agent="Mozilla/5.0 (Macintosh; Intel Mac OS X 10_15_7) AppleWebKit/537.36 (KHTML, like Gecko) Chrome/115.0.0.0 Safari/537.36" version="21.6.6" etag="P5Q81Z0MTF_RwVqiupww" type="github">
  <diagram name="페이지-1" id="Fbz31L2CTwGyDwPbKBJx">
    <mxGraphModel>
      <root>
        <mxCell id="0" />
        <mxCell id="1" parent="0" />
      </root>
    </mxGraphModel>
  </diagram>
</mxfile>
